<svg xmlns="http://www.w3.org/2000/svg" viewBox="0 0 144 144" role="img" aria-label="Sekreterya profil">
  <defs>
    <linearGradient id="bg" x1="22" x2="122" y1="14" y2="134" gradientUnits="userSpaceOnUse">
      <stop offset="0" stop-color="#fff1f3"/>
      <stop offset="1" stop-color="#e8f1ff"/>
    </linearGradient>
    <linearGradient id="vest" x1="36" x2="108" y1="91" y2="134" gradientUnits="userSpaceOnUse">
      <stop offset="0" stop-color="#2b3443"/>
      <stop offset="1" stop-color="#111827"/>
    </linearGradient>
  </defs>
  <rect width="144" height="144" rx="72" fill="url(#bg)"/>
  <path d="M28 129c4-27 22-43 44-43s40 16 44 43" fill="url(#vest)"/>
  <path d="M49 103l23 20 23-20-10-20H59z" fill="#ffffff"/>
  <path d="M47 51c0-25 13-39 35-39 17 0 31 15 31 36 0 16-8 27-17 34H51C43 73 47 60 47 51z" fill="#1f2937"/>
  <circle cx="72" cy="58" r="28" fill="#e0a47b"/>
  <path d="M45 55c9-22 26-31 50-25 9 5 15 13 17 25-14-8-25-13-40-13-12 0-21 4-27 13z" fill="#202939"/>
  <circle cx="61" cy="61" r="3" fill="#111827"/>
  <circle cx="83" cy="61" r="3" fill="#111827"/>
  <path d="M62 74c6 5 15 5 20 0" fill="none" stroke="#8a4937" stroke-width="3" stroke-linecap="round"/>
  <path d="M51 91h42l-21 22z" fill="#f8fafc"/>
  <path d="M60 91h24l-12 15z" fill="#e30613"/>
  <path d="M32 126h80c-5-20-20-32-40-32s-35 12-40 32z" fill="#293342"/>
  <circle cx="112" cy="111" r="12" fill="#101828"/>
  <path d="M106 111l4 4 8-9" fill="none" stroke="#ffffff" stroke-width="3" stroke-linecap="round" stroke-linejoin="round"/>
</svg>
